<svg xmlns="http://www.w3.org/2000/svg" width="32" height="32" enable-background="new 0 0 32 32" viewBox="0 0 32 32" id="dropdown">
  <path fill-rule="evenodd" d="M31.787,15.992c0.01,8.715-7.043,15.783-15.754,15.793
		c-8.756,0.01-15.828-7.047-15.82-15.791C0.22,7.271,7.264,0.221,15.983,0.215C24.721,0.209,31.777,7.252,31.787,15.992z
		 M29.734,15.992C29.727,8.404,23.57,2.26,15.984,2.266C8.414,2.273,2.273,8.418,2.266,15.992
		c-0.007,7.596,6.161,13.754,13.767,13.742C23.596,29.727,29.744,23.561,29.734,15.992z" clip-rule="evenodd"></path>
  <path fill-rule="evenodd" d="M14.964,21.758c0-0.201,0-0.318,0-0.436c0-4.307,0-8.609,0.001-12.918
		c0-0.584,0.26-0.979,0.725-1.111c0.63-0.182,1.248,0.24,1.32,0.902c0.014,0.115,0.006,0.232,0.006,0.352c0,4.244,0,8.484,0,12.725
		c0,0.125,0,0.25,0,0.436c0.113-0.094,0.186-0.148,0.25-0.211c0.75-0.73,1.496-1.465,2.248-2.195
		c0.473-0.457,1.092-0.482,1.512-0.066c0.432,0.43,0.402,1.059-0.08,1.533c-1.16,1.137-2.32,2.273-3.488,3.4
		c-0.908,0.877-2.066,0.877-2.974,0c-1.167-1.127-2.326-2.266-3.484-3.404c-0.477-0.469-0.51-1.076-0.094-1.508
		c0.417-0.438,1.05-0.42,1.535,0.051c0.75,0.729,1.496,1.465,2.245,2.195C14.757,21.574,14.835,21.641,14.964,21.758z" clip-rule="evenodd"></path>
</svg>
